<svg id="visual" viewBox="0 0 1000 1000" width="1000" height="1000" xmlns="http://www.w3.org/2000/svg" xmlns:xlink="http://www.w3.org/1999/xlink" version="1.1"><path d="M309 1000L320.7 976.2C332.3 952.3 355.7 904.7 356.2 857C356.7 809.3 334.3 761.7 304.3 714C274.3 666.3 236.7 618.7 215.3 571.2C194 523.7 189 476.3 203.5 428.8C218 381.3 252 333.7 284.3 286C316.7 238.3 347.3 190.7 351.5 143C355.7 95.3 333.3 47.7 322.2 23.8L311 0L1000 0L1000 23.8C1000 47.7 1000 95.3 1000 143C1000 190.7 1000 238.3 1000 286C1000 333.7 1000 381.3 1000 428.8C1000 476.3 1000 523.7 1000 571.2C1000 618.7 1000 666.3 1000 714C1000 761.7 1000 809.3 1000 857C1000 904.7 1000 952.3 1000 976.2L1000 1000Z" fill="#1f1a6a"></path><path d="M408 1000L417 976.2C426 952.3 444 904.7 433.2 857C422.3 809.3 382.7 761.7 379.8 714C377 666.3 411 618.7 412 571.2C413 523.7 381 476.3 370 428.8C359 381.3 369 333.7 386.7 286C404.3 238.3 429.7 190.7 432.7 143C435.7 95.3 416.3 47.7 406.7 23.8L397 0L1000 0L1000 23.8C1000 47.7 1000 95.3 1000 143C1000 190.7 1000 238.3 1000 286C1000 333.7 1000 381.3 1000 428.8C1000 476.3 1000 523.7 1000 571.2C1000 618.7 1000 666.3 1000 714C1000 761.7 1000 809.3 1000 857C1000 904.7 1000 952.3 1000 976.2L1000 1000Z" fill="#002e6d"></path><path d="M476 1000L495 976.2C514 952.3 552 904.7 573.7 857C595.3 809.3 600.7 761.7 585.2 714C569.7 666.3 533.3 618.7 532.3 571.2C531.3 523.7 565.7 476.3 567.3 428.8C569 381.3 538 333.7 536 286C534 238.3 561 190.7 557.8 143C554.7 95.3 521.3 47.7 504.7 23.8L488 0L1000 0L1000 23.8C1000 47.7 1000 95.3 1000 143C1000 190.7 1000 238.3 1000 286C1000 333.7 1000 381.3 1000 428.8C1000 476.3 1000 523.7 1000 571.2C1000 618.7 1000 666.3 1000 714C1000 761.7 1000 809.3 1000 857C1000 904.7 1000 952.3 1000 976.2L1000 1000Z" fill="#003b67"></path><path d="M642 1000L629.2 976.2C616.3 952.3 590.7 904.7 581.8 857C573 809.3 581 761.7 600.2 714C619.3 666.3 649.7 618.7 647.5 571.2C645.3 523.7 610.7 476.3 602 428.8C593.3 381.3 610.7 333.7 615.2 286C619.7 238.3 611.3 190.7 621.7 143C632 95.3 661 47.7 675.5 23.8L690 0L1000 0L1000 23.8C1000 47.7 1000 95.3 1000 143C1000 190.7 1000 238.3 1000 286C1000 333.7 1000 381.3 1000 428.8C1000 476.3 1000 523.7 1000 571.2C1000 618.7 1000 666.3 1000 714C1000 761.7 1000 809.3 1000 857C1000 904.7 1000 952.3 1000 976.2L1000 1000Z" fill="#00445f"></path><path d="M696 1000L699.3 976.2C702.7 952.3 709.3 904.7 727.3 857C745.3 809.3 774.7 761.7 769 714C763.3 666.3 722.7 618.7 711.8 571.2C701 523.7 720 476.3 735.2 428.8C750.3 381.3 761.7 333.7 754.2 286C746.7 238.3 720.3 190.7 722.5 143C724.7 95.3 755.3 47.7 770.7 23.8L786 0L1000 0L1000 23.8C1000 47.7 1000 95.3 1000 143C1000 190.7 1000 238.3 1000 286C1000 333.7 1000 381.3 1000 428.8C1000 476.3 1000 523.7 1000 571.2C1000 618.7 1000 666.3 1000 714C1000 761.7 1000 809.3 1000 857C1000 904.7 1000 952.3 1000 976.2L1000 1000Z" fill="#00494a"></path><path d="M865 1000L856.3 976.2C847.7 952.3 830.3 904.7 822.5 857C814.7 809.3 816.3 761.7 824.5 714C832.7 666.3 847.3 618.7 857.2 571.2C867 523.7 872 476.3 874.7 428.8C877.3 381.3 877.7 333.7 869.8 286C862 238.3 846 190.7 845.3 143C844.7 95.3 859.3 47.7 866.7 23.8L874 0L1000 0L1000 23.8C1000 47.7 1000 95.3 1000 143C1000 190.7 1000 238.3 1000 286C1000 333.7 1000 381.3 1000 428.8C1000 476.3 1000 523.7 1000 571.2C1000 618.7 1000 666.3 1000 714C1000 761.7 1000 809.3 1000 857C1000 904.7 1000 952.3 1000 976.2L1000 1000Z" fill="#0d4a2b"></path></svg>