<svg id="visual" viewBox="0 0 600 1080" width="600" height="1080" xmlns="http://www.w3.org/2000/svg" xmlns:xlink="http://www.w3.org/1999/xlink" version="1.1"><path d="M88 1080L90 1057.5C92 1035 96 990 106.3 945C116.7 900 133.3 855 128.8 810C124.3 765 98.7 720 98.2 675C97.7 630 122.3 585 134.2 540C146 495 145 450 141.8 405C138.7 360 133.3 315 122.3 270C111.3 225 94.7 180 90.8 135C87 90 96 45 100.5 22.5L105 0L600 0L600 22.5C600 45 600 90 600 135C600 180 600 225 600 270C600 315 600 360 600 405C600 450 600 495 600 540C600 585 600 630 600 675C600 720 600 765 600 810C600 855 600 900 600 945C600 990 600 1035 600 1057.5L600 1080Z" fill="#332ab1"></path><path d="M251 1080L239.3 1057.5C227.7 1035 204.3 990 200.7 945C197 900 213 855 224 810C235 765 241 720 244.5 675C248 630 249 585 242.2 540C235.3 495 220.7 450 209.8 405C199 360 192 315 194.3 270C196.7 225 208.3 180 211.2 135C214 90 208 45 205 22.5L202 0L600 0L600 22.5C600 45 600 90 600 135C600 180 600 225 600 270C600 315 600 360 600 405C600 450 600 495 600 540C600 585 600 630 600 675C600 720 600 765 600 810C600 855 600 900 600 945C600 990 600 1035 600 1057.5L600 1080Z" fill="#0055b8"></path><path d="M358 1080L345.8 1057.5C333.7 1035 309.3 990 298.7 945C288 900 291 855 297.2 810C303.3 765 312.7 720 323.7 675C334.7 630 347.3 585 342.8 540C338.3 495 316.7 450 302.2 405C287.7 360 280.3 315 285.8 270C291.3 225 309.7 180 320.5 135C331.3 90 334.7 45 336.3 22.5L338 0L600 0L600 22.5C600 45 600 90 600 135C600 180 600 225 600 270C600 315 600 360 600 405C600 450 600 495 600 540C600 585 600 630 600 675C600 720 600 765 600 810C600 855 600 900 600 945C600 990 600 1035 600 1057.5L600 1080Z" fill="#0071ad"></path><path d="M386 1080L383.5 1057.5C381 1035 376 990 374.8 945C373.7 900 376.3 855 381.2 810C386 765 393 720 402.8 675C412.7 630 425.3 585 432.7 540C440 495 442 450 444.8 405C447.7 360 451.3 315 443.7 270C436 225 417 180 404 135C391 90 384 45 380.5 22.5L377 0L600 0L600 22.5C600 45 600 90 600 135C600 180 600 225 600 270C600 315 600 360 600 405C600 450 600 495 600 540C600 585 600 630 600 675C600 720 600 765 600 810C600 855 600 900 600 945C600 990 600 1035 600 1057.5L600 1080Z" fill="#008394"></path><path d="M522 1080L511.7 1057.5C501.3 1035 480.7 990 473 945C465.3 900 470.7 855 482.2 810C493.7 765 511.3 720 521.3 675C531.3 630 533.7 585 534 540C534.3 495 532.7 450 523.5 405C514.3 360 497.7 315 499.5 270C501.3 225 521.7 180 518 135C514.3 90 486.7 45 472.8 22.5L459 0L600 0L600 22.5C600 45 600 90 600 135C600 180 600 225 600 270C600 315 600 360 600 405C600 450 600 495 600 540C600 585 600 630 600 675C600 720 600 765 600 810C600 855 600 900 600 945C600 990 600 1035 600 1057.5L600 1080Z" fill="#0e884b"></path></svg>